<svg xmlns="http://www.w3.org/2000/svg" viewBox="0 0 4.776 423">
    <g fill="#fff" data-name="Groupe 7" transform="translate(-491.112 -908.101)">
        <circle cx="2.388" cy="2.388" r="2.388" data-name="Ellipse 7" transform="translate(491.112 908.101)"/>
        <circle cx="2.289" cy="2.289" r="2.289" data-name="Ellipse 8" transform="translate(491.211 928.215)"/>
        <circle cx="2.189" cy="2.189" r="2.189" data-name="Ellipse 9" transform="translate(491.311 948.329)"/>
        <circle cx="2.09" cy="2.09" r="2.09" data-name="Ellipse 10" transform="translate(491.41 968.444)"/>
        <circle cx="1.99" cy="1.99" r="1.99" data-name="Ellipse 11" transform="translate(491.51 988.558)"/>
        <circle cx="1.891" cy="1.891" r="1.891" data-name="Ellipse 12" transform="translate(491.609 1008.673)"/>
        <circle cx="1.791" cy="1.791" r="1.791" data-name="Ellipse 13" transform="translate(491.709 1028.787)"/>
        <circle cx="1.692" cy="1.692" r="1.692" data-name="Ellipse 14" transform="translate(491.808 1048.901)"/>
        <circle cx="1.592" cy="1.592" r="1.592" data-name="Ellipse 15" transform="translate(491.908 1069.016)"/>
        <circle cx="1.493" cy="1.493" r="1.493" data-name="Ellipse 16" transform="translate(492.007 1089.13)"/>
        <circle cx="1.393" cy="1.393" r="1.393" data-name="Ellipse 17" transform="translate(492.107 1109.245)"/>
        <circle cx="1.294" cy="1.294" r="1.294" data-name="Ellipse 18" transform="translate(492.206 1129.359)"/>
        <circle cx="1.194" cy="1.194" r="1.194" data-name="Ellipse 19" transform="translate(492.306 1149.474)"/>
        <circle cx="1.095" cy="1.095" r="1.095" data-name="Ellipse 20" transform="translate(492.405 1169.588)"/>
        <circle cx=".995" cy=".995" r=".995" data-name="Ellipse 21" transform="translate(492.505 1189.703)"/>
        <circle cx=".896" cy=".896" r=".896" data-name="Ellipse 22" transform="translate(492.604 1209.817)"/>
        <circle cx=".796" cy=".796" r=".796" data-name="Ellipse 23" transform="translate(492.704 1229.931)"/>
        <circle cx=".697" cy=".697" r=".697" data-name="Ellipse 24" transform="translate(492.803 1250.046)"/>
        <circle cx=".597" cy=".597" r=".597" data-name="Ellipse 25" transform="translate(492.903 1270.16)"/>
        <circle cx=".498" cy=".498" r=".498" data-name="Ellipse 26" transform="translate(493.002 1290.275)"/>
        <circle cx=".398" cy=".398" r=".398" data-name="Ellipse 27" transform="translate(493.102 1310.389)"/>
        <circle cx=".299" cy=".299" r=".299" data-name="Ellipse 28" transform="translate(493.201 1330.504)"/>
    </g>
</svg>
