<svg data-name="Logo CFDT" xmlns="http://www.w3.org/2000/svg" viewBox="0 0 212 99.133"><g data-name="Groupe 1" fill="#ea5806"><path data-name="Tracé 1" d="M131.406 43.989c-.483 0-.608.143-.6.616.021 2.787.01 5.574.01 8.361 0 .316.01.632-.009.946 0 .057-.118.115-.19.156-.012.007-.082-.062-.106-.107a4.949 4.949 0 0 1-.324-.654c-.383-1.1-.74-2.217-1.129-3.319-.583-1.651-1.188-3.294-1.778-4.943-.38-1.062-.377-1.063-1.565-1.044-.211 0-.468-.076-.62.018a1.376 1.376 0 0 0-.575.627 2.993 2.993 0 0 0-.022.939v14.514a3.013 3.013 0 0 0 .022.939 1.229 1.229 0 0 0 .567.632 1.851 1.851 0 0 0 .778.021c1.035-.012 1.152-.116 1.157-1.167.011-2.314 0-4.628 0-6.942 0-.683-.005-1.367.007-2.051 0-.086.092-.169.141-.254a.969.969 0 0 1 .165.228c.473 1.38.971 2.745 1.545 4.093.686 1.608 1.087 3.335 1.618 5.009a1.5 1.5 0 0 0 1.9 1.085c.445-.085.622-.466.624-1.388V45.631c.001-1.681.001-1.659-1.616-1.642Z"/><path data-name="Tracé 2" d="M170.615 55.614v-2.682c0-.736-.024-1.474.005-2.209a10.965 10.965 0 0 0-.658-3.834c-.609-1.876-1.9-3.131-3.984-2.919a2.834 2.834 0 0 0-1.554.431 6.452 6.452 0 0 0-1.509 1.718 8.63 8.63 0 0 0-1.083 3.95 26.4 26.4 0 0 0 .209 6.818 11.7 11.7 0 0 0 1 2.907 3.761 3.761 0 0 0 2.124 1.867 4.151 4.151 0 0 0 4.458-2.044c.212-.469.34-1.006.592-1.49.276-.53-.129-1.218.381-1.745.131-.134.019-.506.019-.768Zm-2.184-3.017c-.014 1.7-.388 2.985-.411 4.327a3.167 3.167 0 0 1-1.016 2.23 1.044 1.044 0 0 1-1.759-.261c-.216-.382-.628-.79-.591-1.15.086-.851-.385-1.57-.369-2.391.036-1.782.024-3.566.007-5.349a16.1 16.1 0 0 1 .665-2.88c.051-.3.405-.584.676-.809.494-.409.736-.338 1.205.057a3.3 3.3 0 0 1 1.185 2.476c-.01 1.402.501 2.724.408 3.75Z"/><path data-name="Tracé 3" d="M202.521 45.636c0-1.685 0-1.663-1.618-1.646-.485 0-.605.147-.6.618.019 3.474.01 6.948.01 10.422 0 .736.009 1.474 0 2.211a3.465 3.465 0 0 1-.648 1.779c-.519.318-1.163.749-1.676.421a2.06 2.06 0 0 1-1.177-1.854c.071-3.946.034-7.895.025-11.843 0-.564.14-1.356-.161-1.63-.322-.292-1.091-.069-1.66-.118-.515-.045-.727.039-.721.662.037 4.211.01 8.422.024 12.633a5.67 5.67 0 0 0 1.254 3.264 2.559 2.559 0 0 0 2.517 1.146c.748-.094 1.524.151 2.242-.314a4.478 4.478 0 0 0 2.176-3.749c.074-2.1.018-4.211.018-6.316Z"/><path data-name="Tracé 4" d="M193.012 58.391a15.591 15.591 0 0 1-.85-3.89c-.2-1.441-.779-2.823-.694-4.3-.7-.459-.054-1.265-.505-1.851-.385-.5-.029-1.245-.4-1.882a4.1 4.1 0 0 1-.336-1.9c-.013-.523-.213-.617-.652-.571a7.494 7.494 0 0 1-.788.005l-.005-.047a4.072 4.072 0 0 0-1.346.2c-.159.08.085.793-.1 1.015-.575.692.039 1.651-.605 2.284a13.725 13.725 0 0 1-.442 2.818 23.743 23.743 0 0 1-.571 2.767 16.365 16.365 0 0 1-.318 1.909c-.768 2-.794 4.163-1.41 6.2-.04.132.211.469.384.522a4.1 4.1 0 0 0 .938.028 1.06 1.06 0 0 0 1.149-.733 4.634 4.634 0 0 0 .276-1.469c.113-.629.283-1.248.429-1.871.521-.012 1.041-.026 1.562-.036.263 0 .526-.009.788 0 .717.026.866.168 1.006.85.2.967.414 1.93.635 2.893.029.13.128.346.2.347.626.017 1.253 0 1.88-.014a3.781 3.781 0 0 0 .088-1.509c-.237-.6-.102-1.248-.313-1.765Zm-3.118-3.593c.074.509-.172.64-.623.581a3.632 3.632 0 0 0-.472 0c-1.173 0-1.2 0-1.109-1.173a12.541 12.541 0 0 1 .3-1.444c.085-.435-.147-.9.261-1.322.16-.165.09-.6.047-.9a1.6 1.6 0 0 1 .327-1.129c.065-.1.134-.2.2-.3a1.463 1.463 0 0 1 .111.268 39.409 39.409 0 0 0 .942 4.8c.063.182-.018.414.012.619Z"/><path data-name="Tracé 5" d="M121.324 61.471c.136.217.631.21.964.3l.023-.1a2.125 2.125 0 0 0 .771-.023.659.659 0 0 0 .34-.53c-.227-1.021-.307-2.087-.584-3.07a29.165 29.165 0 0 1-.813-3.895c-.2-1.439-.781-2.819-.691-4.3-.679-.56-.134-1.431-.578-2.136a6.484 6.484 0 0 1-.376-2.2 3.077 3.077 0 0 0-.41-1.387c-.183-.219-.771-.111-1.178-.13a2.486 2.486 0 0 0-.937.02 1 1 0 0 0-.6.586 9.948 9.948 0 0 1-.292 1.616 7.69 7.69 0 0 0-.33 1.746c-.132 1.35-.567 2.634-.72 3.984-.115 1.011-.44 2.019-.609 3.049s-.42 2.036-.658 3.039a16.348 16.348 0 0 1-.468 2.159c-.469 1.225-.164 1.547 1.129 1.489a1.4 1.4 0 0 0 1.288-1.065c.109-.744.245-1.486.3-2.234a.754.754 0 0 1 .742-.8c.785-.047 1.576 0 2.363-.018.387-.007.292.283.4.492a5.04 5.04 0 0 1 .317 1.768 4.449 4.449 0 0 0 .607 1.64Zm-1.579-6.115a8.359 8.359 0 0 1-1.265.018c-.082-.01-.723.07-.834-.136a1.5 1.5 0 0 1-.007-1.314c.317-.465.126-.9.222-1.333a12.485 12.485 0 0 0 .3-1.285 2.341 2.341 0 0 1 .313-1.293c.178-.238-.2-.682.22-.91a8.269 8.269 0 0 1 .324.964c.143.675.224 1.358.39 2.034a18.509 18.509 0 0 0 .642 2.881c.029.077-.177.351-.305.377Z"/><path data-name="Tracé 6" d="M211.994 60.935a1.554 1.554 0 0 0-.087-.436c-.7-2.129-1.426-4.253-2.115-6.387a4.355 4.355 0 0 1-.191-2.814q1-2.9 2.009-5.8c.527-1.506.534-1.5-1.048-1.5-1.089.005-1.214.121-1.411 1.239-.042.24-.165.466-.2.706-.122.934-.774 1.716-.761 2.692 0 .138-.19.278-.292.418a1.651 1.651 0 0 1-.319-.4c-.331-.916-.64-1.841-.955-2.763a6.819 6.819 0 0 0-.589-1.644c-.379-.56-1.073-.132-1.616-.243-.1-.021-.243-.045-.309.005a.775.775 0 0 0-.314.395 1.452 1.452 0 0 0 .055.758c.989 2.294 1.4 4.776 2.327 7.089a.85.85 0 0 1 .022.534c-.8 2.459-1.678 4.893-2.4 7.373-.548 1.888-.723 1.458 1.242 1.539a.845.845 0 0 0 .956-.755 21.251 21.251 0 0 1 .974-3.068 7.557 7.557 0 0 0 .308-1.3.929.929 0 0 1 .638-.542c.406-.059.231.347.284.569.056.238.156.468.192.708.149.977.818 1.813.766 2.848-.006.118.19.234.238.369.411 1.164.407 1.165 1.52 1.164a4.544 4.544 0 0 1 .474 0c.611.067.623.02.602-.754Z"/><path data-name="Tracé 7" d="M149.134 60.104a2.181 2.181 0 0 1 0-.315c.062-.446-.059-.657-.576-.635-1 .041-2 0-3 .018-.381.008-.563-.065-.548-.507.032-1 0-2 .015-3 .013-.615.078-1.227.119-1.841.573-.011 1.147-.031 1.72-.032 1.745 0 1.735 0 1.639-1.775-.018-.335-.117-.451-.451-.444-.84.018-1.681 0-2.523.008-.27 0-.516.022-.513-.373.01-1.419-.016-2.839.016-4.257a.711.711 0 0 1 .785-.744c.946.005 1.892-.008 2.838.007.312.005.5-.051.475-.415-.018-.261 0-.525 0-.788-.026-.781-.226-1-1-1.01q-2.286-.023-4.573 0c-.874.008-1.058.2-1.061 1.1-.008 2.575 0 5.151 0 7.726v7.41c0 1.442.007 1.444 1.507 1.449h3.626c1.519.007 1.519.007 1.505-1.582Z"/><path data-name="Tracé 8" d="M157.975 61.683c.132-.011.247-.159.384-.208a3.538 3.538 0 0 0 2.5-3.027 5.156 5.156 0 0 0 .029-2.281 5.768 5.768 0 0 0-.758-2.221c-.49-.823-1.28-1.46-1.851-2.244-.7-.954-1.724-1.713-1.877-3.008-.709-.617-.059-1.259.129-1.739a1.508 1.508 0 0 1 1.694-.726 7.246 7.246 0 0 1 1.68.508c.383.165.581.178.6-.284.015-.367-.01-.737.007-1.1a1.01 1.01 0 0 0-.654-1.063 5 5 0 0 0-2.413-.273 3.928 3.928 0 0 0-3.011 1.485c-.8.832-.434 2.013-.875 2.953.5.692.4 1.58.869 2.333a30.167 30.167 0 0 0 2.184 3.025 16.9 16.9 0 0 1 1.789 2.739c.463.865.087 1.529-.216 2.263-.22.532-.808.178-1.069.457-.4.423-.618-.056-.9-.063a3.294 3.294 0 0 1-1.824-.6.668.668 0 0 0-.5.1c-.029.734-.018 1.47-.016 2.206.682.261 1.353.553 2.049.769a3.339 3.339 0 0 0 .943.014c.371-.005.741.014 1.107-.015Z"/><path data-name="Tracé 9" d="M113.418 58.81a7.425 7.425 0 0 0-.938-5.116c-.455-.666-1.006-1.268-1.516-1.9a11.568 11.568 0 0 1-1.961-2.814c-.408-.993-.393-1.545.21-2.181a2.1 2.1 0 0 1 2.357-.4c1.622.7 1.609.7 1.557-1.069a1.047 1.047 0 0 0-.669-1.051 4.968 4.968 0 0 0-2.088-.271 3.078 3.078 0 0 0-3.103 1.268 6.477 6.477 0 0 0-.958 3.218 3.645 3.645 0 0 0 .438 1.606 10.181 10.181 0 0 0 2.451 3.709 9.892 9.892 0 0 1 1.878 2.851 1.878 1.878 0 0 1-.791 2.373c-.94.659-1.77.2-2.587-.1-1.231-.465-1.211-.519-1.212.841 0 .263.007.525 0 .788s.068.38.367.53a6.389 6.389 0 0 0 3.22.609 3.77 3.77 0 0 0 3.345-2.891Z"/><path data-name="Tracé 10" d="M174.999 48.246c.034-1.162.977-1.461 1.714-1.944a.961.961 0 0 1 .727-.036c.413.134.915.607 1.168.488.522-.247.119-.9.22-1.366a.725.725 0 0 0 0-.157c-.009-.834-.36-1.186-1.254-1.227a8.554 8.554 0 0 0-1.259 0 3.3 3.3 0 0 0-2.011.86c-1.74 1.613-2.178 3.788-2.368 5.939a16.869 16.869 0 0 0 .208 5.389 12.4 12.4 0 0 0 1.294 3.573 3.93 3.93 0 0 0 4.144 1.909 1.83 1.83 0 0 0 1.087-.365c.2-.2.13-.668.153-1.019.021-.314 0-.63.006-.945.016-.537-.12-.563-.64-.369-1.6.6-2.425.278-3.089-1.2a7.012 7.012 0 0 1-.692-2.7c-.016-.735 0-1.471 0-2.206a15.348 15.348 0 0 0-.013-1.732 8.222 8.222 0 0 1 .313-2.078c.041-.32.285-.602.292-.814Z"/><path data-name="Tracé 11" d="M141.189 46.197a.522.522 0 0 0 .347-.349 4.393 4.393 0 0 0 .014-.944c-.032-.654-.268-.894-.952-.9-1.947-.012-3.893 0-5.84-.01-.312 0-.5.052-.474.417.035.569.047 1.139.069 1.708a15.094 15.094 0 0 0 1.54.08c.472-.02.622.116.617.6-.025 2.315-.011 4.63-.011 6.945 0 2 .032 4-.009 6-.045 2.172.127 1.925 1.973 1.957.534.009.572-.217.571-.648-.013-4.367-.008-8.735-.008-13.1v-.947a.724.724 0 0 1 .746-.786c.468-.039.947.019 1.417-.023Z"/><path data-name="Tracé 12" d="M182.935 52.599v-7.561c0-1.031-.007-1.031-1.1-1.035h-.473c-.938.007-.948.007-.948.875v15.437a3.42 3.42 0 0 0 .015.784c.043.179.216.45.35.462a5.889 5.889 0 0 0 1.79-.008c.484-.112.371-.67.371-1.078q-.004-3.938-.005-7.876Z"/><path data-name="Tracé 13" d="M110.192 74.068c-.432-.339-.25-.83-.121-1.267.567-1.922.207-3.489-2.3-3.211-.1.011-.24-.04-.307.01-.134.1-.325.247-.328.377-.025 1.2-.015 2.409-.015 3.614 0 1.152.009 2.3-.006 3.456 0 .334.105.46.443.447.523-.02 1.048.011 1.571-.014a.8.8 0 0 0 .538-.19 3.389 3.389 0 0 0 .882-1.346c.084-.601.328-1.34-.357-1.876Zm-2.444-2.752c-.034-.323.072-.495.425-.463.157.014.315 0 .473 0 .783.029 1.034.285 1 1.013a1.335 1.335 0 0 1-1.159 1.2.715.715 0 0 1-.73-.649 3.528 3.528 0 0 1-.007-.63 4.529 4.529 0 0 0-.002-.472Zm1.42 4.914c-1.74-.043-1.383.244-1.41-1.171-.015-.8.24-1.044.938-1.044s.923.241.949 1.04v.311c0 .155-.011.312 0 .467.032.367-.182.403-.477.396Z"/><path data-name="Tracé 14" d="M143.76 72.277a2.606 2.606 0 0 0-3.038-2.683.739.739 0 0 0-.751.787v3.158c0 1 .013 2-.007 3a.82.82 0 0 0 .34.81c.617.394 2.466.058 2.759-.625.3-.708.848-1.346.72-2.239a18.53 18.53 0 0 1-.023-2.208Zm-1.283 3.515a1.228 1.228 0 0 1-1.087.445c-.3-.024-.48-.055-.477-.419q.019-2.279 0-4.561c0-.367.176-.41.481-.409a1.3 1.3 0 0 1 1.414 1.1c.168.568.287 1.15.428 1.726a3.088 3.088 0 0 1-.76 2.118Z"/><path data-name="Tracé 15" d="M164.923 72.888a4.947 4.947 0 0 0-.925-2.617 1.485 1.485 0 0 0-2.139-.328c-1.079.737-.887 1.963-1.29 2.948a1.513 1.513 0 0 0 .12 1.48.778.778 0 0 1 .122.569c-.2.844.538 1.368.682 2.094a.776.776 0 0 0 .434.438 1.912 1.912 0 0 0 2.351-.914 5.77 5.77 0 0 0 .652-2.766 5.919 5.919 0 0 0-.007-.904Zm-.941 1.573v.158c-.035.7-.82 1.909-1.251 1.922s-1.244-1.174-1.274-1.9c-.015-.368 0-.737 0-1.155a3.826 3.826 0 0 1 .3-2.037 1.008 1.008 0 0 1 .948-.613.894.894 0 0 1 .954.6 4.367 4.367 0 0 1 .309 1.131c.051.628.014 1.266.014 1.894Z"/><path data-name="Tracé 16" d="M155.426 71.641a3.484 3.484 0 0 0-.8-1.681 1.608 1.608 0 0 0-1.4-.377 1.8 1.8 0 0 1-.626 0c-.436-.051-.662.04-.642.567.041 1.1.013 2.2.013 3.3 0 1.257-.006 2.514.013 3.771 0 .089.184.242.287.246s.313-.132.317-.214c.026-.627.007-1.256.017-1.885a.645.645 0 0 1 .65-.7c.118 0 .257.332.37.522a2.825 2.825 0 0 1 .575 1.339 1.285 1.285 0 0 0 .33.788.832.832 0 0 0 .7.144c.322-.093.268-.346.085-.6a5.144 5.144 0 0 1-.231-.531c-.529-.942-.9-1.833.02-2.816a2.078 2.078 0 0 0 .322-1.873Zm-1.609 1.936a.783.783 0 0 1-1.2-.474 5.6 5.6 0 0 1 0-1.26c.034-.331-.252-.843.208-.956a2.425 2.425 0 0 1 1.343.138c.492.184.316.7.339 1.229.259.589-.263.955-.689 1.321Z"/><path data-name="Tracé 17" d="M169.337 69.975c0-.13-.211-.256-.325-.384-.1.144-.276.287-.278.432-.023 1.21 0 2.421-.022 3.632a.372.372 0 1 1-.614.185 6.917 6.917 0 0 1-.326-.812c-.42-1.037-.833-2.076-1.273-3.1-.06-.14-.253-.223-.385-.333-.079.163-.226.325-.227.488-.015 2.315-.01 4.631-.009 6.947a.7.7 0 0 0 .016.307.3.3 0 0 0 .242.144c.131-.025.33-.1.356-.189a2.4 2.4 0 0 0 .017-.627c0-1.316 0-2.632.006-3.947 0-.086.086-.172.131-.259a1.092 1.092 0 0 1 .176.2 2.931 2.931 0 0 1 .312.659 22.217 22.217 0 0 0 1.594 3.92c.049.109.2.17.309.253.105-.136.3-.27.3-.409.024-1.157.014-2.315.014-3.473.001-1.213.011-2.423-.014-3.634Z"/><path data-name="Tracé 18" d="M114.276 69.936a1.289 1.289 0 0 0-1.632-.043c-1.074.715-1.005 1.906-1.3 2.933a4.387 4.387 0 0 0 .017 1.476c.018.24.2.484.167.707-.116.825.527 1.367.727 2.07a.773.773 0 0 0 .448.4 1.91 1.91 0 0 0 2.117-.892 7.738 7.738 0 0 0 .845-2.923c-.125-1.485-.554-3.128-1.389-3.728Zm.16 5.536a10.259 10.259 0 0 1-.732.937.522.522 0 0 1-.513.021 2.423 2.423 0 0 1-1.019-1.939 9.48 9.48 0 0 0-.02-1.889c-.092-.532.224-.888.388-1.274a1.069 1.069 0 0 1 1.808-.032 4.115 4.115 0 0 1 .334 2.41c-.135.438.236 1.095-.249 1.761Z"/><path data-name="Tracé 19" d="M119.996 70.011c-.082-.161-.309-.384-.425-.36a.7.7 0 0 0-.43.423 2.752 2.752 0 0 0-.018.781v3.146c0 .472.014.944 0 1.415-.014.369-.669 1.2-.9 1.1a3.025 3.025 0 0 1-.942-.742c-.108-.118-.051-.394-.051-.6v-2.517c0-.891.007-1.783-.008-2.674a.7.7 0 0 0-.159-.374.93.93 0 0 0-.523.222 1.283 1.283 0 0 0-.247.675c-.033.627.052 1.266-.024 1.885a18.562 18.562 0 0 0 .347 3.8c.072.915.592 1.293 1.511 1.292.456 0 1.013.153 1.235-.409a8 8 0 0 0 .681-2.224c.108-1.407.034-2.829.028-4.244a1.387 1.387 0 0 0-.075-.595Z"/><path data-name="Tracé 20" d="M148.171 69.754a.463.463 0 0 0-.392-.143.413.413 0 0 0-.215.325c-.018.891-.01 1.782-.01 2.673 0 .944.011 1.888-.005 2.831a1.59 1.59 0 0 1-.929 1.1c-.282.009-.927-.7-.957-1.075-.021-.261 0-.524 0-.786 0-1.311.011-2.622-.009-3.932a2.245 2.245 0 0 0-.188-.862c-.12-.268-.367-.35-.536-.024a1.633 1.633 0 0 0-.206.7c-.019 1.31.007 2.621-.015 3.932a6.77 6.77 0 0 0 .6 2.267c.253.758.728.734 1.3.734a1.171 1.171 0 0 0 1.313-.722 11.137 11.137 0 0 0 .512-2.61 15.343 15.343 0 0 0 .055-3.759 1.279 1.279 0 0 0-.318-.649Z"/><path data-name="Tracé 21" d="M128.469 69.617c-.167.228-.447.443-.478.688-.072.57-.01 1.156-.026 1.734-.025.906-.214 1.048-1.3 1.025-.581-.012-.584-.012-.59-.923 0-.79.009-1.579-.017-2.368 0-.065-.235-.151-.369-.172a.3.3 0 0 0-.237.153.764.764 0 0 0-.01.311v6.948a.764.764 0 0 0 .01.311.306.306 0 0 0 .239.151c.133-.022.365-.109.367-.174.026-.788 0-1.579.021-2.368.016-.679.274-.917.931-.921s.935.232.955.9c.022.736 0 1.474.015 2.211a.441.441 0 0 0 .2.349.637.637 0 0 0 .407-.125.784.784 0 0 0 .342-.806c-.019-1-.007-2-.007-3 0-1.052-.028-2.106.014-3.157.01-.408-.286-.531-.467-.767Z"/><path data-name="Tracé 22" d="M159.429 69.619c-.167.228-.455.444-.479.685-.066.678-.017 1.366-.025 2.051-.008.727-.014.727-.8.711-.887-.018-1.074-.195-1.09-1.08-.013-.684.016-1.37-.02-2.052-.007-.12-.238-.229-.365-.343-.083.105-.238.21-.239.317-.018 1.158-.011 2.316-.011 3.474 0 1.264-.006 2.527.011 3.79 0 .107.155.211.238.317.128-.114.361-.223.366-.342.033-.788 0-1.579.024-2.367.018-.526.335-.761.927-.765s.928.228.954.738c.032.63-.033 1.266.026 1.893a2 2 0 0 0 .4.774.281.281 0 0 0 .273.06c.107-.068.244-.2.245-.306.018-1.052.011-2.105.011-3.158 0-1.21-.025-2.422.014-3.631.012-.406-.279-.534-.46-.766Z"/><path data-name="Tracé 23" d="M131.015 70.853c.472-.009.948.024 1.416-.024.105-.011.264-.283.258-.429-.011-.274.211-.753-.209-.789a24.6 24.6 0 0 0-2.5.018c-.038.615-.093 1.229-.11 1.844-.019.682 0 1.366 0 2.049 0 .578-.013 1.156 0 1.734.019.722.061 1.444.094 2.167.779.02 1.56.031 2.339.065.366.016.407-.169.415-.478.018-.773.034-.775-.729-.789-.315-.005-.632-.017-.946 0-.371.024-.548-.049-.558-.5-.034-1.5-.058-1.516 1.57-1.709.411-.049.367-.314.324-.547a.561.561 0 0 0-.306-.392 1.906 1.906 0 0 0-.782-.01.638.638 0 0 1-.73-.457 7.546 7.546 0 0 1 .035-1.682c0-.027.272-.063.419-.071Z"/><path data-name="Tracé 24" d="M172.721 76.225c-1.523-.032-1.522-.032-1.475-1.61 0-.105-.034-.228.009-.311.059-.113.164-.253.273-.278a3.16 3.16 0 0 1 .627-.013c.459-.006 1.172.118 1.19-.418.023-.656-.7-.5-1.185-.533-.7-.047-.882-.245-.914-.935-.059-1.256-.059-1.256 1.182-1.273a2.825 2.825 0 0 1 .472 0c.538.084.565-.218.57-.642.006-.442-.061-.7-.583-.632a5.905 5.905 0 0 1-.786.006h-.63c-.846.01-.853.01-.856.81 0 1.627-.012 3.254 0 4.881.007.72.069 1.439.106 2.159.781.016 1.562.047 2.343.032a.52.52 0 0 0 .374-.321c.158-.743.019-.907-.717-.922Z"/><path data-name="Tracé 25" d="M134.773 72.445c-.374-.307-.689-.652-.418-1.184s.793-.411 1.247-.394c.124 0 .232.193.367.243.4.148.593-.015.527-.425-.122-.757-1.188-1.483-1.707-1.064s-1.161.786-1.171 1.711a3.022 3.022 0 0 0 1.654 2.989.942.942 0 0 1 .592 1.1c.013.85-.459 1.155-1.239.8-.133-.06-.254-.148-.39-.2s-.391-.135-.407-.1a.932.932 0 0 0-.163.552 1.49 1.49 0 0 0 2.823.011c.055-.248-.029-.536.058-.765a2.866 2.866 0 0 0-.592-2.329c-.369-.341-.789-.625-1.181-.945Z"/><path data-name="Tracé 26" d="M124.217 76.122a.907.907 0 0 0-.531-.174c-.12.011-.237.194-.334.317-.3.378-.539.322-.885.006a2.862 2.862 0 0 1-.816-2.525c0-.511.008-.88 0-1.248a1.652 1.652 0 0 1 .636-1.464 1 1 0 0 1 1.394.09c.066.064.4-.015.4-.029 0-.39.13-.9-.068-1.146-.542-.669-1.874-.371-2.367.388a6.433 6.433 0 0 0-.934 3.244 10.375 10.375 0 0 0 .668 3.043 1.282 1.282 0 0 0 1.462.884 1.677 1.677 0 0 0 1.5-.936c.153-.288.008-.362-.125-.45Z"/><path data-name="Tracé 27" d="M145.392 43.053c.076-.019.389 0 .547-.15a77.777 77.777 0 0 0 2.462-2.446c.247-.254.072-.483-.149-.642a4.644 4.644 0 0 0-.761-.446c-.5-.228-1.006-.136-1.164.356-.322 1.007-1.125 1.724-1.481 2.7-.189.536-.166.634.546.628Z"/><path data-name="Tracé 28" d="M138.708 73.389c-.248-.053-.52.016-.776-.014-.627-.076-.469.369-.488.7s-.029.643.46.571a3.241 3.241 0 0 1 .467 0 2.439 2.439 0 0 0 .311 0c.265-.036.645.163.664-.367a.768.768 0 0 0-.638-.89Z"/><path data-name="Tracé 29" d="M150.295 73.385c-.257-.026-.519 0-.778-.007-.533-.02-.37.375-.377.646s-.127.668.4.621c.155-.013.311 0 .467 0a1.324 1.324 0 0 0 .311 0c.254-.063.653.207.712-.314a.79.79 0 0 0-.735-.946Z"/><path data-name="Tracé 30" d="M162.042 68.941a5.042 5.042 0 0 0 .758-.352 1.622 1.622 0 0 0 .4.354c.1.046.291-.033.411-.1.055-.032.078-.2.049-.278a5.061 5.061 0 0 0-.311-.653.662.662 0 0 0-1.146-.147 2.812 2.812 0 0 0-.415.917c-.022.053.192.276.254.259Z"/></g><g data-name="Groupe 3"><path data-name="Tracé 31" d="M98.814 44.567a58.042 58.042 0 0 0-.617-4.229 48.9 48.9 0 0 0-3.549-11.248A49.7 49.7 0 0 0 66.416 2.957 47.623 47.623 0 0 0 59.401.991a59.953 59.953 0 0 0-4.386-.69c-1-.122-2.009-.115-3.006-.262a60.134 60.134 0 0 0-7.29.171c-.028 0-.056 0-.084.008-1.051.146-2.1.282-3.153.44a45.707 45.707 0 0 0-7 1.667 48.884 48.884 0 0 0-10.516 4.763 49.627 49.627 0 0 0-9.425 7.372 58.113 58.113 0 0 0-2.068 2.2 45.781 45.781 0 0 0-2.854 3.514 50.24 50.24 0 0 0-3.482 5.434 48.536 48.536 0 0 0-4.089 9.721 47.62 47.62 0 0 0-1.74 8.531 42.378 42.378 0 0 0-.3 4.263c-.007 1.091.01 2.181 0 3.272-.006 1.066.122 2.122.216 3.179s.273 2.1.434 3.154a45.578 45.578 0 0 0 1.788 7.322 49.532 49.532 0 0 0 43.362 33.925c1.225.1 2.457.108 3.686.159v-.019c.308 0 .618.026.923 0 1.252-.124 2.515-.053 3.765-.236.746-.11 1.5-.131 2.249-.244 1.63-.247 3.25-.543 4.854-.935a49.516 49.516 0 0 0 37.427-42.33 47.281 47.281 0 0 0 .325-5.185 48.112 48.112 0 0 0-.223-5.618Z" fill="#ea5806"/><g data-name="Groupe 2" fill="#fff"><path data-name="Tracé 32" d="M66.615 38.138c0-.223-.005-.447-.015-.67a.355.355 0 0 0-.2-.3c-.151-.01-.345-.033-.538-.034h-4.444a2.446 2.446 0 0 0-.417.02 1.5 1.5 0 0 0-.3.118 2.926 2.926 0 0 0-.061.351c-.01.251-.008.5-.008.754v5.533a1.479 1.479 0 0 1-.073.736.275.275 0 0 1-.293-.111 5.614 5.614 0 0 0-3.536-1.55 8.826 8.826 0 0 0-9.033 5.167 11.076 11.076 0 0 0-.708 6.077 9.207 9.207 0 0 0 1.676 4.155 8.329 8.329 0 0 0 5.778 3.358 9.871 9.871 0 0 0 2.675.011 6.118 6.118 0 0 0 2.867-1.091c.246-.181.463-.4.7-.6.033-.028.1-.01.184-.015a3.09 3.09 0 0 1 .042.315c.01.279.009.559.016.838a.352.352 0 0 0 .146.3 1.741 1.741 0 0 0 .729.065q1.97.006 3.94 0a4.711 4.711 0 0 0 .5-.014 1.452 1.452 0 0 0 .288-.088 2.288 2.288 0 0 0 .085-.945q.003-11.188 0-22.38Zm-6.491 16.857a3.775 3.775 0 0 1-2.381 1.585 4.393 4.393 0 0 1-2.865-.275 3.656 3.656 0 0 1-1.833-1.772 4.351 4.351 0 0 1 .309-4.612 3.633 3.633 0 0 1 2.817-1.6 4.942 4.942 0 0 1 1.749.1 4.043 4.043 0 0 1 3.008 3.974 4.467 4.467 0 0 1-.804 2.601Z"/><path data-name="Tracé 33" d="M32.541 52.232q-2.6-.006-5.2 0a1.681 1.681 0 0 0-.33.073c-.1.214-.2.413-.286.615a7.875 7.875 0 0 1-1.08 1.788 6.425 6.425 0 0 1-8.6 1.239 7.082 7.082 0 0 1-2.416-2.944 8.285 8.285 0 0 1-.715-3.753 7.915 7.915 0 0 1 1.414-4.32 6.378 6.378 0 0 1 6.433-2.686 6.6 6.6 0 0 1 3.424 1.813 7.027 7.027 0 0 1 1.379 1.987c.119.249.247.495.372.746a1.891 1.891 0 0 0 .346.065q2.681-.007 5.363-.026c.049 0 .1-.048.153-.078a1.115 1.115 0 0 0-.115-.72 12.466 12.466 0 0 0-8.015-8.194 9.961 9.961 0 0 0-2.614-.569 14.857 14.857 0 0 0-3.676.137 11.939 11.939 0 0 0-6.406 3.237 12.564 12.564 0 0 0-3.181 5.159 11.1 11.1 0 0 0-.543 2.536 12.541 12.541 0 0 0 4.008 10.417 12.182 12.182 0 0 0 7.255 3.137 12.91 12.91 0 0 0 4.411-.318 12.093 12.093 0 0 0 8.905-8.805 1.179 1.179 0 0 0 .032-.329c0-.046-.053-.091-.09-.151a.941.941 0 0 0-.228-.056Z"/><path data-name="Tracé 34" d="M44.979 44c-.19-.017-.382-.044-.575-.049-.363-.011-.727 0-1.09-.017a1.244 1.244 0 0 1-.3-.086 2.121 2.121 0 0 1-.07-1.1 1.035 1.035 0 0 1 .975-.977c.25-.027.5-.023.754-.036a.475.475 0 0 0 .381-.178 1 1 0 0 0 .049-.226q.009-1.844.007-3.689a2.172 2.172 0 0 0-.045-.321.712.712 0 0 0-.546-.187 14.9 14.9 0 0 0-2.592.155 6.653 6.653 0 0 0-2.456.8 4.449 4.449 0 0 0-2.054 2.45 5.436 5.436 0 0 0-.339 1.72c-.008.419-.014.838-.023 1.258a.452.452 0 0 1-.191.4c-.155.01-.349.03-.543.035-.279.009-.559 0-.838.013a.4.4 0 0 0-.356.185 1.533 1.533 0 0 0-.041.495v2.683c0 .28 0 .56.016.839a1.208 1.208 0 0 0 .111.309c.218.015.412.034.606.039.279.009.559 0 .838.011a.391.391 0 0 1 .342.159 1.427 1.427 0 0 1 .051.264c.011.251.009.5.009.754v10.651c0 .279 0 .559.013.838a.342.342 0 0 0 .115.287.652.652 0 0 0 .413.09H42.213a.866.866 0 0 0 .6-.124 1.235 1.235 0 0 0 .08-.28c.017-.251.018-.5.018-.754V49.76c0-.279 0-.559.012-.838a.4.4 0 0 1 .192-.361 3.346 3.346 0 0 1 .819-.046c.28-.007.559-.006.838-.015a.354.354 0 0 0 .305-.195c.01-.15.032-.344.034-.537q.005-1.509 0-3.019a4.119 4.119 0 0 0-.026-.5 1.015 1.015 0 0 0-.106-.249Z"/><path data-name="Tracé 35" d="M79.615 57.294a2.959 2.959 0 0 0-.865-.087 1.076 1.076 0 0 1-1.064-1.08c-.018-.194-.018-.39-.018-.586v-6.2c0-.14 0-.279.009-.419a.4.4 0 0 1 .19-.368c.556-.114 1.15.039 1.8-.121.02-.251.05-.443.049-.634q-.01-1.8-.034-3.6c0-.047-.049-.094-.076-.142a.694.694 0 0 0-.476-.1c-.363-.009-.726 0-1.089-.019a1.055 1.055 0 0 1-.284-.09 1.949 1.949 0 0 1-.091-.861v-4.86a2.014 2.014 0 0 0-.07-.815.539.539 0 0 0-.465-.169h-4.944a.516.516 0 0 0-.166.016c-.1.036-.2.086-.271.118a2.3 2.3 0 0 0-.078.867v4.693q0 .377-.014.754a.375.375 0 0 1-.185.321c-.116.011-.279.035-.444.039-.307.009-.615 0-.922.013a1.233 1.233 0 0 0-.275.068.881.881 0 0 0-.132.6v2.849c0 .223 0 .448.017.67a1.149 1.149 0 0 0 .1.283 2.478 2.478 0 0 0 .863.081 2.438 2.438 0 0 1 .89.079 1.607 1.607 0 0 1 .106.846c0 1.928.008 3.855 0 5.782a10.505 10.505 0 0 0 .167 1.916 5.151 5.151 0 0 0 1.886 3.26 5.741 5.741 0 0 0 2.1 1.017 11.511 11.511 0 0 0 3.571.328 1.054 1.054 0 0 0 .3-.12c.011-.248.029-.47.03-.692q.006-1.047 0-2.095c0-.419 0-.838-.016-1.256a1.011 1.011 0 0 0-.099-.286Z"/><path data-name="Tracé 36" d="M90.604 55.774c-.165-.01-.385-.033-.6-.034h-4.599a.529.529 0 0 0-.433.149 1.32 1.32 0 0 0-.064.6v4.181c0 .167 0 .334.01.5a.381.381 0 0 0 .172.335 1.647 1.647 0 0 0 .681.053c3.955.033 4.355.025 5-.1a4.826 4.826 0 0 0 .062-.523q.006-2.3 0-4.6a2.252 2.252 0 0 0-.016-.25.39.39 0 0 0-.213-.311Z"/><path data-name="Tracé 37" d="M90.728 44.034a1.456 1.456 0 0 0-.786-.119q-2.093-.006-4.187 0a3.44 3.44 0 0 0-.5.022 1.456 1.456 0 0 0-.31.126c-.014.244-.039.463-.04.684-.005.754 0 1.507 0 2.261 0 .726 0 1.452.005 2.177a.5.5 0 0 0 .114.4 1.045 1.045 0 0 0 .635.088c1.34.006 2.68 0 4.02 0 .251 0 .5 0 .753-.011a1.4 1.4 0 0 0 .29-.073 1.648 1.648 0 0 0 .109-.853c.023-4.025.02-4.124-.103-4.702Z"/></g></g></svg>
